HIERARCHY
ROOT hip
{
  OFFSET 0 0 0
  CHANNELS 6 Xposition Yposition Zposition Zrotation Yrotation Xrotation
  JOINT abdomen
  {
    OFFSET 0 20.6881 -0.73152
    CHANNELS 3 Zrotation Xrotation Yrotation
    JOINT chest
    {
      OFFSET 0 11.7043 -0.48768
      CHANNELS 3 Zrotation Xrotation Yrotation
      JOINT neck
      {
        OFFSET 0 22.1894 -2.19456
        CHANNELS 3 Zrotation Xrotation Yrotation
        JOINT head
        {
          OFFSET -0.24384 7.07133 1.2192
          CHANNELS 3 Zrotation Xrotation Yrotation
          JOINT leftEye
          {
            OFFSET 4.14528 8.04674 8.04672
            CHANNELS 3 Zrotation Xrotation Yrotation
            End Site
            {
              OFFSET 1 0 0
            }
          }
          JOINT rightEye
          {
            OFFSET -3.6576 8.04674 8.04672
            CHANNELS 3 Zrotation Xrotation Yrotation
            End Site
            {
              OFFSET 1 0 0
            }
          }
        }
      }
      JOINT rCollar
      {
        OFFSET -2.68224 19.2634 -4.8768
        CHANNELS 3 Zrotation Xrotation Yrotation
        JOINT rShldr
        {
          OFFSET -8.77824 -1.95073 1.46304
          CHANNELS 3 Zrotation Xrotation Yrotation
          JOINT rForeArm
          {
            OFFSET -28.1742 -1.7115 0.48768
            CHANNELS 3 Zrotation Xrotation Yrotation
            JOINT rHand
            {
              OFFSET -22.5879 0.773209 7.07136
              CHANNELS 3 Zrotation Xrotation Yrotation
              JOINT rThumb1
              {
                OFFSET -1.2192 -0.487915 3.41376
                CHANNELS 3 Zrotation Xrotation Yrotation
                JOINT rThumb2
                {
                  OFFSET -3.37035 -0.52449 3.41376
                  CHANNELS 3 Zrotation Xrotation Yrotation
                  End Site
                  {
                    OFFSET -1.78271 -1.18214 1.43049
                  }
                }
              }
              JOINT rIndex1
              {
                OFFSET -7.75947 0.938293 5.60832
                CHANNELS 3 Zrotation Xrotation Yrotation
                JOINT rIndex2
                {
                  OFFSET -2.54057 -0.884171 1.56538
                  CHANNELS 3 Zrotation Xrotation Yrotation
                  End Site
                  {
                    OFFSET -1.62519 -0.234802 1.16502
                  }
                }
              }
              JOINT rMid1
              {
                OFFSET -8.24714 1.18213 3.41376
                CHANNELS 3 Zrotation Xrotation Yrotation
                JOINT rMid2
                {
                  OFFSET -3.10165 -0.590103 1.0647
                  CHANNELS 3 Zrotation Xrotation Yrotation
                  End Site
                  {
                    OFFSET -2.48547 -0.328903 0.83742
                  }
                }
              }
              JOINT rRing1
              {
                OFFSET -8.82822 0.546677 1.51678
                CHANNELS 3 Zrotation Xrotation Yrotation
                JOINT rRing2
                {
                  OFFSET -2.60934 -0.819778 -0.0198488
                  CHANNELS 3 Zrotation Xrotation Yrotation
                  End Site
                  {
                    OFFSET -2.33842 -0.294052 0.168128
                  }
                }
              }
              JOINT rPinky1
              {
                OFFSET -8.27202 -0.0477905 -0.4584
                CHANNELS 3 Zrotation Xrotation Yrotation
                JOINT rPinky2
                {
                  OFFSET -1.82734 -0.647385 -0.700984
                  CHANNELS 3 Zrotation Xrotation Yrotation
                  End Site
                  {
                    OFFSET -1.69225 -0.51767 -0.607171
                  }
                }
              }
            }
          }
        }
      }
      JOINT lCollar
      {
        OFFSET 2.68224 19.2634 -4.8768
        CHANNELS 3 Zrotation Xrotation Yrotation
        JOINT lShldr
        {
          OFFSET 8.77824 -1.95073 1.46304
          CHANNELS 3 Zrotation Xrotation Yrotation
          JOINT lForeArm
          {
            OFFSET 28.1742 -1.7115 0.48768
            CHANNELS 3 Zrotation Xrotation Yrotation
            JOINT lHand
            {
              OFFSET 22.5879 0.773209 7.07136
              CHANNELS 3 Zrotation Xrotation Yrotation
              JOINT lThumb1
              {
                OFFSET 1.2192 -0.487915 3.41376
                CHANNELS 3 Zrotation Xrotation Yrotation
                JOINT lThumb2
                {
                  OFFSET 3.37035 -0.52449 3.41376
                  CHANNELS 3 Zrotation Xrotation Yrotation
                  End Site
                  {
                    OFFSET 1.78271 -1.18214 1.43049
                  }
                }
              }
              JOINT lIndex1
              {
                OFFSET 7.75947 0.938293 5.60832
                CHANNELS 3 Zrotation Xrotation Yrotation
                JOINT lIndex2
                {
                  OFFSET 2.54057 -0.884171 1.56538
                  CHANNELS 3 Zrotation Xrotation Yrotation
                  End Site
                  {
                    OFFSET 1.62519 -0.234802 1.16502
                  }
                }
              }
              JOINT lMid1
              {
                OFFSET 8.24714 1.18213 3.41376
                CHANNELS 3 Zrotation Xrotation Yrotation
                JOINT lMid2
                {
                  OFFSET 3.10165 -0.590103 1.0647
                  CHANNELS 3 Zrotation Xrotation Yrotation
                  End Site
                  {
                    OFFSET 2.48547 -0.328903 0.83742
                  }
                }
              }
              JOINT lRing1
              {
                OFFSET 8.82822 0.546677 1.51678
                CHANNELS 3 Zrotation Xrotation Yrotation
                JOINT lRing2
                {
                  OFFSET 2.60934 -0.819778 -0.0198488
                  CHANNELS 3 Zrotation Xrotation Yrotation
                  End Site
                  {
                    OFFSET 2.33842 -0.294052 0.168128
                  }
                }
              }
              JOINT lPinky1
              {
                OFFSET 8.27202 -0.0477905 -0.4584
                CHANNELS 3 Zrotation Xrotation Yrotation
                JOINT lPinky2
                {
                  OFFSET 1.82734 -0.647385 -0.700984
                  CHANNELS 3 Zrotation Xrotation Yrotation
                  End Site
                  {
                    OFFSET 1.69225 -0.51767 -0.607171
                  }
                }
              }
            }
          }
        }
      }
    }
  }
  JOINT rButtock
  {
    OFFSET -8.77824 4.35084 1.2192
    CHANNELS 3 Zrotation Xrotation Yrotation
    JOINT rThigh
    {
      OFFSET 0 -1.70687 -2.19456
      CHANNELS 3 Zrotation Xrotation Yrotation
      JOINT rShin
      {
        OFFSET 0 -36.8199 0.73152
        CHANNELS 3 Zrotation Xrotation Yrotation
        JOINT rFoot
        {
          OFFSET 0.73152 -45.1104 -5.12064
          CHANNELS 3 Zrotation Xrotation Yrotation
          End Site
          {
            OFFSET -1.1221 -3.69964 12.103
          }
        }
      }
    }
  }
  JOINT lButtock
  {
    OFFSET 8.77824 4.35084 1.2192
    CHANNELS 3 Zrotation Xrotation Yrotation
    JOINT lThigh
    {
      OFFSET 0 -1.70687 -2.19456
      CHANNELS 3 Zrotation Xrotation Yrotation
      JOINT lShin
      {
        OFFSET 0 -36.8199 0.73152
        CHANNELS 3 Zrotation Xrotation Yrotation
        JOINT lFoot
        {
          OFFSET -0.73152 -45.1104 -5.12064
          CHANNELS 3 Zrotation Xrotation Yrotation
          End Site
          {
            OFFSET 1.1221 -3.69964 12.103
          }
        }
      }
    }
  }
}
MOTION
Frames:	4
Frame Time:	0.00833333
11.4977 82.0569 96.9292 -0.8226 -3.5659 18.5825 2.12222 -5.84336 6.51316 -1.36654 -7.51243 1.71238 -0.319256 7.31797 0.626907 1.85041 0.77813 1.29486 -0.0 0.0 0.0 -0.0 0.0 0.0 -7.77412e-14 6.13053e-13 -1.72943e-14 61.3896 32.3694 26.1395 -28.3701 -37.5206 79.5831 -93.4036 -81.8378 -101.517 2.10765e-09 5.67473e-09 -9.63568e-10 3.65064e-09 8.70854e-09 -1.49843e-09 2.10765e-09 5.67472e-09 -9.63578e-10 7.73091 5.47488 0.417314 2.10765e-09 5.67471e-09 -9.63555e-10 2.90554 0.965183 0.102902 2.10764e-09 5.67472e-09 -9.63561e-10 10.2786 0.731801 0.0259123 2.10764e-09 5.67474e-09 -9.63552e-10 2.22167 -0.733487 -0.20892 -7.80117e-14 6.1305e-13 -1.76918e-14 -16.4455 66.1692 -55.4594 27.9661 -40.5895 -84.9847 6.68704 -56.7069 12.3574 -3.64376e-09 -3.81953e-09 -1.30741e-09 -6.20422e-09 -6.96598e-09 -2.40959e-09 -3.64376e-09 -3.81951e-09 -1.30738e-09 -7.73091 5.47488 -0.417314 -3.64376e-09 -3.81953e-09 -1.30741e-09 -2.90554 0.965183 -0.102902 -3.64377e-09 -3.81953e-09 -1.30741e-09 -10.2786 0.731801 -0.0259123 -3.64375e-09 -3.81954e-09 -1.30741e-09 -2.22167 -0.733487 0.20892 -2.03217e-16 0.0 -3.88251e-19 13.9711 -27.9672 0.551213 -0.125513 33.9342 1.2792 -25.1221 -30.1142 -38.4338 2.03217e-16 0.0 3.88251e-19 -3.58452 -70.3093 -12.6795 0.337871 38.2702 -0.385796 5.79574 -5.06054 31.4768
11.3386 82.0464 97.2634 -1.9678 -3.2538 18.9044 2.66694 -5.62987 6.26663 -1.48495 -7.86545 1.62211 -0.371124 7.56818 0.853906 1.68624 -0.849249 1.75452 -0.0 0.0 0.0 -0.0 0.0 0.0 -7.18306e-14 5.70214e-13 -1.64207e-14 62.2916 32.6161 26.0874 -28.4297 -36.575 77.9252 -101.874 -81.4811 -110.077 1.69984e-09 4.6841e-09 -7.31324e-10 2.94004e-09 7.25854e-09 -1.13181e-09 1.69984e-09 4.68409e-09 -7.31331e-10 7.73091 5.47488 0.417314 1.69984e-09 4.68408e-09 -7.31313e-10 2.90554 0.965183 0.102902 1.69984e-09 4.68409e-09 -7.31317e-10 10.2786 0.731801 0.0259123 1.69983e-09 4.68411e-09 -7.31308e-10 2.22167 -0.733487 -0.20892 -7.2069e-14 5.70212e-13 -1.67895e-14 -10.7058 66.2473 -60.9921 28.1689 -39.4752 -82.9355 5.57465 -53.4687 10.9873 -3.15713e-09 -3.5878e-09 -1.29893e-09 -5.36949e-09 -6.49407e-09 -2.36946e-09 -3.15713e-09 -3.58778e-09 -1.2989e-09 -7.73091 5.47488 -0.417314 -3.15713e-09 -3.5878e-09 -1.29893e-09 -2.90554 0.965183 -0.102902 -3.15714e-09 -3.5878e-09 -1.29893e-09 -10.2786 0.731801 -0.0259123 -3.15712e-09 -3.5878e-09 -1.29893e-09 -2.22167 -0.733487 0.20892 -2.03217e-16 0.0 -3.88251e-19 14.2675 -27.8182 0.271607 -0.124954 33.8345 1.2741 -24.919 -29.8471 -38.3294 2.03217e-16 0.0 3.88251e-19 -4.5799 -70.6224 -14.7197 0.327389 37.9231 -0.401575 7.44202 -7.95852 31.2665
11.3108 81.9834 97.5098 -2.0856 -3.1633 19.0211 3.44826 -5.43727 5.89412 -1.6949 -8.29586 1.48317 -0.358837 7.9425 1.09961 1.44912 -2.47897 2.23985 -0.0 0.0 0.0 -0.0 0.0 0.0 -6.34272e-14 4.85431e-13 -2.49226e-14 63.1784 33.0473 25.9065 -28.4425 -35.5168 76.1831 -107.208 -81.1416 -115.473 9.63418e-10 2.93518e-09 -3.05397e-10 1.65713e-09 4.71257e-09 -4.59432e-10 9.63422e-10 2.93516e-09 -3.05401e-10 7.73091 5.47488 0.417314 9.63418e-10 2.93516e-09 -3.05389e-10 2.90554 0.965183 0.102902 9.63419e-10 2.93516e-09 -3.0539e-10 10.2786 0.731801 0.0259123 9.63411e-10 2.93518e-09 -3.05382e-10 2.22167 -0.733487 -0.20892 -6.35911e-14 4.85432e-13 -2.52332e-14 -5.13129 66.1537 -66.1937 28.3206 -38.3216 -80.8818 4.82635 -51.0236 10.0451 -2.19937e-09 -2.71078e-09 -1.04752e-09 -3.73606e-09 -4.87915e-09 -1.89306e-09 -2.19937e-09 -2.71076e-09 -1.0475e-09 -7.73091 5.47488 -0.417314 -2.19937e-09 -2.71078e-09 -1.04752e-09 -2.90554 0.965183 -0.102902 -2.19938e-09 -2.71078e-09 -1.04752e-09 -10.2786 0.731801 -0.0259123 -2.19936e-09 -2.71078e-09 -1.04752e-09 -2.22167 -0.733487 0.20892 -2.03217e-16 0.0 -3.88251e-19 14.6428 -27.6552 -0.246219 -0.124659 33.8262 1.27429 -24.7313 -29.5486 -38.2689 2.03217e-16 0.0 3.88251e-19 -4.78073 -70.9569 -15.5701 0.318427 37.6901 -0.426731 8.8752 -11.0513 30.2997
11.3376 81.9598 97.8505 -2.12 -3.0959 18.9758 4.22393 -5.25695 5.46465 -1.91078 -8.71502 1.32689 -0.314005 8.325 1.36463 1.20437 -4.05929 2.7564 -0.0 0.0 0.0 -0.0 0.0 0.0 -5.45571e-14 3.92101e-13 -3.13249e-14 64.0035 33.5424 25.678 -28.4075 -34.4009 74.3823 -109.574 -80.961 -117.869 2.4243e-10 4.11807e-10 1.14994e-10 4.01339e-10 8.48386e-10 2.04221e-10 2.42435e-10 4.11786e-10 1.14993e-10 7.73091 5.47488 0.417314 2.4243e-10 4.1179e-10 1.14998e-10 2.90554 0.965183 0.102902 2.42433e-10 4.1178e-10 1.15e-10 10.2786 0.731801 0.0259123 2.42425e-10 4.11807e-10 1.15006e-10 2.22167 -0.733487 -0.20892 -5.46402e-14 3.92104e-13 -3.1571e-14 0.202093 65.776 -71.0269 28.4069 -37.167 -78.9194 4.27604 -49.0719 9.33914 -1.19541e-09 -1.69136e-09 -7.48313e-10 -2.02566e-09 -3.02068e-09 -1.33356e-09 -1.19541e-09 -1.69135e-09 -7.483e-10 -7.73091 5.47488 -0.417314 -1.19541e-09 -1.69136e-09 -7.48319e-10 -2.90554 0.965183 -0.102902 -1.19542e-09 -1.69136e-09 -7.48312e-10 -10.2786 0.731801 -0.0259123 -1.19541e-09 -1.69136e-09 -7.48317e-10 -2.22167 -0.733487 0.20892 -2.03217e-16 0.0 -3.88251e-19 14.9869 -27.4721 -0.813502 -0.124603 33.87 1.27723 -24.5612 -29.2463 -38.2381 2.03217e-16 0.0 3.88251e-19 -4.72607 -71.2701 -15.9236 0.311563 37.5559 -0.453057 9.96151 -13.8417 29.2659
